<?xml version="1.0" encoding="UTF-8"?>
<svg width="40px" height="40px" viewBox="0 0 40 40" version="1.1" xmlns="http://www.w3.org/2000/svg" xmlns:xlink="http://www.w3.org/1999/xlink">
    <!-- Generator: Sketch 45.2 (43514) - http://www.bohemiancoding.com/sketch -->
    <title>听录音-不显示@2x</title>
    <desc>Created with Sketch.</desc>
    <defs></defs>
    <g id="APP" stroke="none" stroke-width="1" fill="none" fill-rule="evenodd">
        <g id="历史会议" transform="translate(-440.000000, -1035.000000)" fill="#DDDDDD">
            <path d="M453.288539,1059.14087 C453.670484,1059.14087 453.983097,1059.44871 453.983097,1059.82516 L453.983097,1074.31549 C453.983097,1074.69189 453.670484,1075 453.288539,1075 L446.701723,1075 C446.319778,1075 446.007222,1074.69189 446.007222,1074.31549 L446.007222,1059.82516 C446.007222,1059.44871 446.319778,1059.14087 446.701723,1059.14087 L453.288539,1059.14087 Z M473.309333,1059.14087 C473.691278,1059.14087 474.003834,1059.44871 474.003834,1059.82516 L474.003834,1074.31549 C474.003834,1074.69189 473.691278,1075 473.309333,1075 L466.72246,1075 C466.340572,1075 466.028185,1074.69189 466.028185,1074.31549 L466.028185,1059.82516 C466.028185,1059.44871 466.340572,1059.14087 466.72246,1059.14087 L473.309333,1059.14087 Z M479.986088,1054.01329 L480,1054.01329 L480,1067.07029 L475.995917,1067.07029 L475.995917,1054.71217 C475.995917,1045.86543 468.602572,1038.72061 459.573663,1038.95209 C450.879648,1039.17504 444.004309,1046.30742 444.004309,1054.87916 L444.004309,1067.07029 L440,1067.07029 L440,1054.01329 L440.013912,1054.01329 C440.387486,1043.45045 449.191719,1035 460,1035 C470.808281,1035 479.61257,1043.45045 479.986088,1054.01329 Z" id="听录音-不显示"></path>
        </g>
    </g>
</svg>