<?xml version="1.0" encoding="UTF-8"?>
<svg width="40px" height="40px" viewBox="0 0 40 40" version="1.1" xmlns="http://www.w3.org/2000/svg" xmlns:xlink="http://www.w3.org/1999/xlink">
    <!-- Generator: Sketch 45.2 (43514) - http://www.bohemiancoding.com/sketch -->
    <title>听录音-显示@2x</title>
    <desc>Created with Sketch.</desc>
    <defs></defs>
    <g id="APP" stroke="none" stroke-width="1" fill="none" fill-rule="evenodd">
        <g id="历史会议" transform="translate(-440.000000, -413.000000)" fill="#E05B5B">
            <path d="M453.288539,437.140872 C453.670484,437.140872 453.983097,437.448707 453.983097,437.825155 L453.983097,452.315494 C453.983097,452.691886 453.670484,453 453.288539,453 L446.701723,453 C446.319778,453 446.007222,452.691886 446.007222,452.315494 L446.007222,437.825155 C446.007222,437.448707 446.319778,437.140872 446.701723,437.140872 L453.288539,437.140872 Z M473.309333,437.140872 C473.691278,437.140872 474.003834,437.448707 474.003834,437.825155 L474.003834,452.315494 C474.003834,452.691886 473.691278,453 473.309333,453 L466.72246,453 C466.340572,453 466.028185,452.691886 466.028185,452.315494 L466.028185,437.825155 C466.028185,437.448707 466.340572,437.140872 466.72246,437.140872 L473.309333,437.140872 Z M479.986088,432.013285 L480,432.013285 L480,445.070291 L475.995917,445.070291 L475.995917,432.712171 C475.995917,423.865427 468.602572,416.720612 459.573663,416.952088 C450.879648,417.175036 444.004309,424.307421 444.004309,432.879159 L444.004309,445.070291 L440,445.070291 L440,432.013285 L440.013912,432.013285 C440.387486,421.450454 449.191719,413 460,413 C470.808281,413 479.61257,421.450454 479.986088,432.013285 Z" id="听录音-显示"></path>
        </g>
    </g>
</svg>