<?xml version="1.0" encoding="UTF-8"?>
<svg width="30px" height="18px" viewBox="0 0 30 18" version="1.1" xmlns="http://www.w3.org/2000/svg" xmlns:xlink="http://www.w3.org/1999/xlink">
    <!-- Generator: Sketch 45.2 (43514) - http://www.bohemiancoding.com/sketch -->
    <title>视频-小@2x</title>
    <desc>Created with Sketch.</desc>
    <defs></defs>
    <g id="APP" stroke="none" stroke-width="1" fill="none" fill-rule="evenodd">
        <g id="最新会议" transform="translate(-694.000000, -981.000000)" fill="#E05B5B">
            <path d="M723.232212,981.18609 C722.818997,981.18609 722.874033,981.2152 721.703128,982.171813 C720.532224,983.128425 713.974964,988.578341 713.974964,988.578341 L713.974964,982.246463 C713.974964,981.560859 713.441705,981 712.790142,981 L695.184653,981 C694.533047,981 694,981.561038 694,982.246463 L694,997.753358 C694,998.439141 694.533174,999 695.184653,999 L712.790142,999 C713.441705,999 713.974964,998.438962 713.974964,997.753358 L713.974964,991.421614 C713.974964,991.421614 720.532224,996.871575 721.703128,997.828187 C722.87416,998.784755 722.818997,998.813732 723.232212,998.813732 C723.645427,998.813732 724,998.74118 724,997.581779 L724,982.418087 C724,981.258463 723.645427,981.18609 723.232212,981.18609" id="视频-小"></path>
        </g>
    </g>
</svg>