<?xml version="1.0" encoding="UTF-8"?>
<svg width="40px" height="40px" viewBox="0 0 40 40" version="1.1" xmlns="http://www.w3.org/2000/svg" xmlns:xlink="http://www.w3.org/1999/xlink">
    <!-- Generator: Sketch 45.2 (43514) - http://www.bohemiancoding.com/sketch -->
    <title>看速记-显示@2x</title>
    <desc>Created with Sketch.</desc>
    <defs></defs>
    <g id="APP" stroke="none" stroke-width="1" fill="none" fill-rule="evenodd">
        <g id="历史会议" transform="translate(-260.000000, -413.000000)" fill="#E05B5B">
            <g id="看速记-显示" transform="translate(260.000000, 413.000000)">
                <path d="M39.62948,6.71169254 L36.6482272,9.6996392 C36.1583428,10.1900042 35.3535765,10.1900042 34.8601929,9.6996392 L30.3112664,5.14238454 C29.821382,4.65184444 29.821382,3.84626049 30.3112664,3.35230504 L33.2925191,0.367773722 C33.7823598,-0.122591241 34.5871261,-0.122591241 35.0805534,0.367773722 L39.6330666,4.92515974 C40.1229073,5.41556849 40.1229073,6.22115243 39.62948,6.71169254 L39.62948,6.71169254 Z M12,27.9919293 L12.0350792,21.651601 C12.0350792,21.651601 12.7907259,20.8878769 12.0314926,21.6480105 L26.9694237,6.69409037 C27.4698494,6.19326044 28.2852007,6.19326044 28.7820398,6.69409037 L33.3065158,11.2234092 C33.806854,11.7244143 33.806854,12.5404195 33.3065158,13.0380092 L18.3719963,27.9953447 L12,27.9919293 Z" id="Fill-1"></path>
                <path d="M20,0 L0,0 L0,40 L40,40 L40,21 L38,21 L38,38 L2,38 L2,2 L20,2 L20,1.77635684e-15 Z" id="Combined-Shape"></path>
            </g>
        </g>
    </g>
</svg>