<?xml version="1.0" encoding="UTF-8"?>
<svg width="60px" height="60px" viewBox="0 0 60 60" version="1.1" xmlns="http://www.w3.org/2000/svg" xmlns:xlink="http://www.w3.org/1999/xlink">
    <!-- Generator: Sketch 45.2 (43514) - http://www.bohemiancoding.com/sketch -->
    <title>推荐</title>
    <desc>Created with Sketch.</desc>
    <defs></defs>
    <g id="APP" stroke="none" stroke-width="1" fill="none" fill-rule="evenodd">
        <g id="最新会议" transform="translate(0.000000, -442.000000)" fill="#E05B5B">
            <path d="M19.9535559,473.245063 L17.6805118,475.529392 L15.8593618,473.69855 L18.1324793,471.414221 L19.9535559,473.245063 Z M17.0266998,470.302925 L14.7548297,472.58814 L12.8245031,470.64754 L15.0967401,468.363506 L17.0266998,470.302925 Z M11.7198976,469.537056 L9.94526498,467.7532 L12.217502,465.468059 L13.9918411,467.251915 L11.7198976,469.537056 Z M27.9221237,444.940441 C27.3090327,445.587258 26.6191954,446.296036 25.8513643,447.067953 L24.9640114,446.175951 C24.9124313,446.124023 24.8634193,446.048565 24.8166817,445.948839 C24.770311,445.849998 24.7619467,445.733381 24.7932029,445.59729 C24.8345109,445.430515 24.8270271,445.33337 24.770311,445.307775 C24.7126411,445.281589 24.6272369,445.32592 24.5129244,445.440546 C24.3266345,445.649145 24.1056401,445.871315 23.8517018,446.105288 C23.5977636,446.340145 23.3564453,446.55221 23.1280403,446.739492 C23.3048653,446.854118 23.4598989,446.969112 23.5951956,447.083222 C23.7299054,447.198143 23.8806835,447.339397 24.0465761,447.506172 L24.7312775,448.194812 L21.4779923,451.464526 L20.668633,450.65086 C20.617053,450.599005 20.5680409,450.523252 20.5213034,450.423526 C20.4737587,450.325054 20.4662749,450.208289 20.4975311,450.071977 C20.5391326,449.905201 20.5313552,449.808352 20.4737587,449.782757 C20.4172628,449.756497 20.3315651,449.800607 20.2172525,449.915528 C20.0303757,450.123905 19.8102617,450.346297 19.5563235,450.580269 C19.3020918,450.815127 19.061067,451.026897 18.8323685,451.214178 C19.0086065,451.329099 19.1642271,451.444094 19.2989368,451.558204 C19.4342336,451.672903 19.5850117,451.814305 19.7509043,451.981154 L20.3579788,452.591459 C19.6417277,453.310342 18.9773503,453.963208 18.3652132,454.546959 C17.7532962,455.131005 17.1978752,455.622037 16.6999773,456.017622 L17.9140528,457.238158 C18.3084238,456.758117 18.7962698,456.205788 19.3769306,455.579329 C19.9584718,454.953829 20.6018651,454.275589 21.3068903,453.545421 C21.4840087,453.723187 21.6439582,453.895199 21.7896003,454.062048 C21.9342886,454.228898 22.0698789,454.395452 22.1942433,454.562227 L23.4083188,453.341986 C23.2211486,453.196527 23.0477721,453.042365 22.886722,452.880753 C22.725892,452.719067 22.5737199,452.564905 22.4278576,452.419447 L25.6805559,449.148553 C25.8674327,449.336719 26.0511545,449.53263 26.2331154,449.736065 C26.4145627,449.939501 26.5778873,450.135117 26.7235295,450.322398 L27.937605,449.101861 C27.7400894,448.945413 27.5641449,448.788669 27.4085243,448.63222 C27.2526102,448.476361 27.050252,448.272926 26.8014498,448.021915 C27.5692809,447.250882 28.2769475,446.55966 28.9254767,445.948839 C29.5737859,445.339419 30.1578951,444.825373 30.676924,444.408176 L29.4629218,443.187934 C29.0481536,443.709504 28.5342607,444.29355 27.9221237,444.940072 L27.9221237,444.940441 Z M20.9177287,460.13272 C21.3120997,459.653563 21.8497648,459.051076 22.5287432,458.32585 C23.2082352,457.600919 23.9219182,456.852605 24.6688385,456.080688 C24.8244591,456.8425 24.9235837,457.603206 24.9640114,458.365091 C25.00642,459.12683 25.0015775,459.872267 24.9488235,460.602361 C24.8972434,461.332751 24.8058227,462.044183 24.676249,462.737692 C24.5467485,463.432381 24.3994189,464.091959 24.2325725,464.717459 C24.5756569,464.72845 24.9098633,464.771895 25.2368794,464.850009 C25.5636019,464.928418 25.8928925,465.020325 26.2257049,465.124329 C26.4431776,463.715626 26.5676154,462.328535 26.5987982,460.96254 L29.9604528,464.342011 C30.2923114,464.67571 30.5981232,464.994066 30.8789886,465.296047 C31.1584601,465.599134 31.4496709,465.932832 31.7502733,466.29788 L33.1824819,464.857828 C32.8184866,464.555847 32.4865547,464.263676 32.1862458,463.982128 C31.8846896,463.700357 31.5691195,463.392328 31.2372609,463.058703 L26.5676154,458.365091 C26.5360657,457.686778 26.4795698,457.035018 26.3965134,456.409149 C26.3136772,455.783649 26.2153596,455.194145 26.1009736,454.640931 L29.0421372,451.683304 C29.4569053,451.266328 29.8776166,450.849353 30.3026568,450.432525 C30.728504,450.015254 31.1407042,449.616203 31.5402112,449.235001 C31.9397181,448.85439 32.3157462,448.508005 32.6688825,448.194812 C33.0216519,447.881693 33.3323795,447.610176 33.6023127,447.381441 L32.4037185,446.176173 C32.1759004,446.447616 31.9033259,446.757637 31.5869487,447.107194 C31.2702046,447.456899 30.9231582,447.832347 30.5439751,448.23398 C30.165379,448.635687 29.7684401,449.050302 29.3536719,449.477309 C28.9386836,449.905496 28.5231083,450.327561 28.1084135,450.744758 L25.7118121,453.154999 C25.6286823,452.841807 25.5848063,452.599204 25.5796703,452.427265 C25.5744609,452.255474 25.607478,452.059563 25.6802624,451.839974 C25.7318424,451.684115 25.7295679,451.587266 25.6727785,451.550385 C25.615182,451.513799 25.5091604,451.553852 25.3535398,451.667961 C25.1147895,451.824705 24.8507994,451.981154 24.5595885,452.137898 C24.269038,452.294347 23.9371061,452.456032 23.5639395,452.622808 C23.6883039,452.873229 23.8104672,453.15736 23.9296956,453.475716 C24.0491441,453.793777 24.1710139,454.161479 24.2953783,454.578676 L24.2801905,454.594019 C23.4283492,455.449434 22.5938236,456.267969 21.7744125,457.049992 C20.9541209,457.833121 20.2691261,458.458695 19.7197215,458.928337 L20.9177287,460.13272 Z M14.825046,460.500349 C14.7055241,460.641529 14.5260578,460.837514 14.2873809,461.087566 C14.0494376,461.337988 13.7304924,461.669031 13.3309121,462.080843 C12.9311116,462.492803 12.4045989,463.027281 11.7511538,463.685162 L8.887397,466.563275 C8.67990286,466.021273 8.51650488,465.586447 8.39698297,465.256879 C8.27775454,464.928418 8.18721431,464.665309 8.12440844,464.467111 C8.06284989,464.26884 8.02645771,464.117259 8.01523189,464.01355 C8.00518002,463.908956 8.0100959,463.815352 8.03130021,463.73178 C8.1347538,463.106206 7.97883971,462.970263 7.56414489,463.32491 C7.36692273,463.481654 7.08752467,463.643339 6.72352945,463.810115 C6.36122178,463.976964 6.01329489,464.133413 5.68143632,464.278945 C5.93016516,464.633887 6.15027918,464.959767 6.34258546,465.256879 C6.53459826,465.554803 6.71832009,465.84926 6.8954385,466.141136 C7.07145635,466.433011 7.23742232,466.735804 7.39304293,467.04848 C7.54895703,467.361378 7.70971363,467.695002 7.8756796,468.050018 C8.25999868,468.936856 8.52655676,469.732377 8.67733486,470.436286 C8.82803959,471.140195 8.90258487,471.878109 8.90258487,472.6501 C9.44171748,472.358224 10.0132068,472.212618 10.6150719,472.211807 C10.5626114,471.909605 10.5009795,471.602387 10.4281951,471.289194 C10.3554108,470.976002 10.272281,470.657572 10.1790994,470.334348 L15.5174514,475.701036 C15.9324397,476.118307 16.2929864,476.486821 16.5993851,476.80407 C16.9051969,477.122426 17.1803394,477.42035 17.4240056,477.696146 C17.667892,477.972752 17.890574,478.233205 18.0937392,478.478095 C18.2952903,478.724164 18.4950071,478.976872 18.6922292,479.237325 L20.0306692,477.891762 L18.7862179,476.639803 L22.1793489,473.228614 C22.8016112,472.60304 23.3068463,472.094231 23.6963747,471.703514 C24.0856097,471.312208 24.4066093,470.999015 24.6613546,470.764822 C24.9152928,470.529964 25.1150829,470.350428 25.2606517,470.224516 C25.4054133,470.09949 25.5401231,469.98538 25.665368,469.880491 L24.3887801,468.597183 C24.3057237,468.72339 24.2024902,468.858521 24.0781258,469.003979 C23.9528809,469.150397 23.776643,469.343726 23.5481646,469.583747 C23.3203466,469.823768 23.0190839,470.136076 22.6456971,470.52244 C22.2725305,470.908878 21.7898205,471.398067 21.1980072,471.993103 L19.3772241,470.162335 C19.8131232,469.724042 20.165966,469.369912 20.4353855,469.098542 C20.7053187,468.827099 20.9285877,468.608395 21.104899,468.441546 C21.2817239,468.27477 21.4289802,468.14104 21.5485021,468.042494 C21.6677306,467.942842 21.7795485,467.851746 21.8827086,467.768469 L20.6373768,466.516584 C20.555421,466.621178 20.4665683,466.730935 20.3734601,466.845045 C20.2802785,466.959744 20.1473297,467.10867 19.9765212,467.290788 C19.8054192,467.473717 19.5869927,467.703706 19.3230026,467.979428 C19.057912,468.256035 18.7082242,468.613337 18.2723251,469.051556 L16.342292,467.111251 C16.7682126,466.683138 17.1153324,466.339334 17.3852656,466.077996 C17.6552721,465.817543 17.8779541,465.604076 18.054779,465.437227 C18.2310904,465.270378 18.3792271,465.137533 18.4984555,465.038175 C18.617684,464.939335 18.7286214,464.847427 18.8329555,464.76415 L17.5724359,463.496922 C17.4893061,463.601517 17.4004534,463.711348 17.3073452,463.825384 C17.2144571,463.940378 17.0848833,464.086722 16.9189907,464.263676 C16.7530247,464.440557 16.5369461,464.667891 16.2729561,464.944498 C16.0078654,465.221105 15.6625065,465.572654 15.2374663,466.000841 L13.4630539,464.216985 L14.7473458,462.925858 C15.0740684,462.597397 15.3418004,462.333477 15.549001,462.136164 C15.7564952,461.937893 15.9224612,461.786312 16.0468256,461.681423 C16.17119,461.577714 16.2907119,461.478873 16.4050978,461.384679 L15.1442847,460.117451 C15.0505895,460.232151 14.944568,460.359759 14.8253395,460.500349 L14.825046,460.500349 Z M8.59163713,462.761665 C9.09973366,462.793013 9.5949902,462.858735 10.0774068,462.957281 C10.5600434,463.056122 11.0037199,463.19472 11.4083629,463.371896 L11.9847681,461.321539 C11.4444616,461.259579 10.9231582,461.183826 10.4204178,461.095385 C9.91657679,461.00665 9.47378075,460.915554 9.08946167,460.82136 L8.59193062,462.761665 L8.59163713,462.761665 Z M2.53703418,467.971904 C2.37106821,468.160071 2.14779923,468.373611 1.86752071,468.613558 C1.58812265,468.853579 1.31811612,469.072283 1.05816146,469.270555 C1.32816799,469.458721 1.7479988,469.812778 2.31948816,470.334348 C2.89017044,470.856139 3.59519564,471.539542 4.43581108,472.384631 C4.05149201,472.770258 3.7043722,473.103809 3.39283749,473.385653 C3.08130278,473.667201 2.80212483,473.912312 2.55222205,474.120984 L3.78236593,475.35738 C3.97951472,475.117285 4.22002597,474.838465 4.50602746,474.520036 C4.79151534,474.20168 5.12564842,473.850131 5.5094539,473.463693 L8.606825,476.577916 C8.35802279,477.057885 8.10922058,477.516609 7.86019825,477.954902 C7.61058895,478.392236 7.36662925,478.794164 7.12787891,479.159285 C7.42943511,479.336977 7.74581233,479.524258 8.07774427,479.72253 C8.40960284,479.920728 8.73118942,480.134564 9.04272413,480.364258 C9.13590573,479.937251 9.24765028,479.511645 9.37722407,479.088695 C9.50672448,478.666556 9.6497986,478.23173 9.80571269,477.782299 L12.5914757,480.583183 C12.954884,480.948304 13.0844577,481.313277 12.9801237,481.678398 C12.8769636,482.043446 12.4613883,482.518324 11.7348653,483.10237 C12.2326899,483.185647 12.6321968,483.295331 12.9336796,483.430758 C13.2340619,483.56707 13.5243923,483.733624 13.8055513,483.931306 C14.2305914,483.35766 14.559882,482.885953 14.7934964,482.515743 C15.0262303,482.144868 15.171799,481.827397 15.2293955,481.560822 C15.2861849,481.295501 15.2574967,481.052898 15.1439913,480.833309 C15.0296787,480.614606 14.8324565,480.364258 14.552178,480.082709 L10.5056019,476.014524 C10.6502902,475.680899 10.7962258,475.352438 10.9417945,475.028918 C11.0873633,474.70562 11.2369674,474.382322 11.3928815,474.058729 C11.1853874,473.954135 10.9756187,473.811258 10.7621081,473.628255 C10.5496981,473.446211 10.3551173,473.245063 10.178806,473.025474 C10.0859912,473.286812 9.97417329,473.576106 9.84467287,473.894535 C9.71421863,474.212891 9.57209835,474.55404 9.41618425,474.919087 L6.73930429,472.227887 C7.06111099,471.925095 7.35400938,471.651955 7.61887991,471.405885 C7.88309011,471.161808 8.12440844,470.949742 8.34195447,470.772862 L7.11269104,469.537056 C6.93645308,469.75576 6.72668442,469.998362 6.48272472,470.263758 C6.23825141,470.530259 5.96655734,470.824716 5.66507451,471.148014 L3.48601909,468.957362 C3.21689302,468.686804 3.08643878,468.420523 3.09766459,468.160071 C3.10764309,467.856983 3.07125091,467.690134 2.98819455,467.658711 C2.90535831,467.628174 2.75458021,467.732842 2.53703418,467.971904 L2.53703418,467.971904 Z M37.5864498,460.352235 C37.8464044,459.955765 38.0224223,459.61174 38.116411,459.319053 C38.2095192,459.027178 38.2299164,458.771888 38.1783364,458.552299 C38.1264628,458.333595 38.0123704,458.135102 37.8361324,457.958148 L35.3142128,455.42288 C36.06172,454.693671 36.7128906,454.06463 37.2680182,453.537676 C37.8226321,453.011016 38.3287476,452.539605 38.785044,452.121523 L37.6489622,450.979321 C37.2442459,451.449257 36.780539,451.968467 36.2565942,452.536138 C35.7324294,453.105431 35.111928,453.759773 34.3965574,454.500341 L33.9918411,454.093471 L34.6140301,451.589626 C34.665977,451.370922 34.7648082,451.105527 34.9095698,450.792335 C35.0551386,450.479142 35.2110527,450.165949 35.3770186,449.852757 L34.2409368,448.710555 C34.012165,449.023748 33.607522,449.493463 33.0268612,450.118963 C32.44532,450.745348 31.6986933,451.51734 30.7852934,452.434715 C29.8727741,453.352976 29.1046495,454.113903 28.4818736,454.718971 C27.8593178,455.324113 27.3921625,455.74131 27.0815082,455.97093 L28.21759,457.113058 C28.331976,456.977927 28.4766642,456.811151 28.6534892,456.612585 C28.8298005,456.414387 29.0140359,456.20837 29.2055351,455.994018 C29.3975479,455.780477 29.5821502,455.580583 29.7583882,455.392343 C29.9343327,455.20425 30.0799748,455.053555 30.1942873,454.93856 L33.1827753,451.934463 L32.4352681,454.969393 L33.1827753,455.720804 C32.3421599,456.565893 31.6181315,457.272163 31.0111304,457.84094 C30.4043495,458.409422 29.8567058,458.896914 29.3688597,459.303784 L30.5050149,460.445912 C30.9197097,459.96587 31.4132054,459.423942 31.9838877,458.818579 C32.5544966,458.213437 33.2604022,457.488506 34.1002106,456.643417 L35.9677313,458.521835 C36.0932696,458.646788 36.1674481,458.769306 36.1938618,458.88939 C36.2202021,459.008442 36.1863779,459.152499 36.0932696,459.319053 C35.9992076,459.485829 35.830747,459.692804 35.5867873,459.937103 C35.342901,460.182878 35.0136104,460.482498 34.5988422,460.837514 C35.0339342,460.96254 35.397049,461.097672 35.6885533,461.24431 C35.9788837,461.389842 36.2531458,461.56156 36.5131005,461.760053 C36.9693968,461.21783 37.3273756,460.748188 37.5864498,460.352235 L37.5864498,460.352235 Z M0.317551158,502 L0,501.680759 L0,464.021369 L21.9047933,442 L60,442 L0.317551158,502 Z" id="推荐"></path>
        </g>
    </g>
</svg>