<?xml version="1.0" encoding="UTF-8"?>
<svg width="40px" height="24px" viewBox="0 0 40 24" version="1.1" xmlns="http://www.w3.org/2000/svg" xmlns:xlink="http://www.w3.org/1999/xlink">
    <!-- Generator: Sketch 45.2 (43514) - http://www.bohemiancoding.com/sketch -->
    <title>播放视频-显示@2x</title>
    <desc>Created with Sketch.</desc>
    <defs></defs>
    <g id="APP" stroke="none" stroke-width="1" fill="none" fill-rule="evenodd">
        <g id="历史会议" transform="translate(-620.000000, -728.000000)" fill="#E05B5B">
            <path d="M658.976283,728.24812 C658.425329,728.24812 658.49871,728.286933 656.937504,729.562417 C655.376298,730.837901 646.633286,738.104455 646.633286,738.104455 L646.633286,729.661951 C646.633286,728.747812 645.922274,728 645.053523,728 L621.579537,728 C620.710729,728 620,728.74805 620,729.661951 L620,750.337811 C620,751.252188 620.710899,752 621.579537,752 L645.053523,752 C645.922274,752 646.633286,751.25195 646.633286,750.337811 L646.633286,741.895486 C646.633286,741.895486 655.376298,749.162099 656.937504,750.437583 C658.49888,751.713007 658.425329,751.751642 658.976283,751.751642 C659.527237,751.751642 660,751.654906 660,750.109039 L660,729.890783 C660,728.344618 659.527237,728.24812 658.976283,728.24812" id="播放视频-显示"></path>
        </g>
    </g>
</svg>