<?xml version="1.0" encoding="UTF-8"?>
<svg width="40px" height="24px" viewBox="0 0 40 24" version="1.1" xmlns="http://www.w3.org/2000/svg" xmlns:xlink="http://www.w3.org/1999/xlink">
    <!-- Generator: Sketch 45.2 (43514) - http://www.bohemiancoding.com/sketch -->
    <title>播放视频-不显示@2x</title>
    <desc>Created with Sketch.</desc>
    <defs></defs>
    <g id="APP" stroke="none" stroke-width="1" fill="none" fill-rule="evenodd">
        <g id="历史会议" transform="translate(-452.000000, -728.000000)" fill="#DDDDDD">
            <path d="M490.976283,728.24812 C490.425329,728.24812 490.49871,728.286933 488.937504,729.562417 C487.376298,730.837901 478.633286,738.104455 478.633286,738.104455 L478.633286,729.661951 C478.633286,728.747812 477.922274,728 477.053523,728 L453.579537,728 C452.710729,728 452,728.74805 452,729.661951 L452,750.337811 C452,751.252188 452.710899,752 453.579537,752 L477.053523,752 C477.922274,752 478.633286,751.25195 478.633286,750.337811 L478.633286,741.895486 C478.633286,741.895486 487.376298,749.162099 488.937504,750.437583 C490.49888,751.713007 490.425329,751.751642 490.976283,751.751642 C491.527237,751.751642 492,751.654906 492,750.109039 L492,729.890783 C492,728.344618 491.527237,728.24812 490.976283,728.24812" id="播放视频-不显示"></path>
        </g>
    </g>
</svg>